<mxfile host="app.diagrams.net" agent="Mozilla/5.0 (Windows NT 10.0; Win64; x64) AppleWebKit/537.36 (KHTML, like Gecko) Chrome/128.0.0.0 Safari/537.36 Edg/128.0.0.0" version="24.7.14">
  <diagram name="Page-1" id="L-jd7t1zlxfzM4xkEq1I">
    <mxGraphModel dx="794" dy="548" grid="1" gridSize="10" guides="1" tooltips="1" connect="1" arrows="1" fold="1" page="1" pageScale="1" pageWidth="1400" pageHeight="850" math="0" shadow="0">
      <root>
        <mxCell id="0" />
        <mxCell id="1" parent="0" />
        <mxCell id="eCUZiB_lusp3el6IH75c-11" style="edgeStyle=orthogonalEdgeStyle;rounded=0;orthogonalLoop=1;jettySize=auto;html=1;" edge="1" parent="1" source="eCUZiB_lusp3el6IH75c-3" target="eCUZiB_lusp3el6IH75c-5">
          <mxGeometry relative="1" as="geometry">
            <mxPoint x="470" y="230" as="targetPoint" />
            <Array as="points">
              <mxPoint x="641" y="250" />
            </Array>
          </mxGeometry>
        </mxCell>
        <mxCell id="eCUZiB_lusp3el6IH75c-3" value="" style="image;sketch=0;aspect=fixed;html=1;points=[];align=center;fontSize=12;image=img/lib/mscae/Kubernetes_Services.svg;" vertex="1" parent="1">
          <mxGeometry x="580" y="310" width="121.62" height="90" as="geometry" />
        </mxCell>
        <mxCell id="eCUZiB_lusp3el6IH75c-4" value="Master Data Management Container" style="text;html=1;align=center;verticalAlign=middle;whiteSpace=wrap;rounded=0;" vertex="1" parent="1">
          <mxGeometry x="610.81" y="410" width="60" height="30" as="geometry" />
        </mxCell>
        <mxCell id="eCUZiB_lusp3el6IH75c-7" style="edgeStyle=orthogonalEdgeStyle;rounded=0;orthogonalLoop=1;jettySize=auto;html=1;" edge="1" parent="1" source="eCUZiB_lusp3el6IH75c-5" target="eCUZiB_lusp3el6IH75c-3">
          <mxGeometry relative="1" as="geometry" />
        </mxCell>
        <mxCell id="eCUZiB_lusp3el6IH75c-5" value="" style="dashed=0;outlineConnect=0;html=1;align=center;labelPosition=center;verticalLabelPosition=bottom;verticalAlign=top;shape=mxgraph.weblogos.gmail" vertex="1" parent="1">
          <mxGeometry x="380" y="210" width="70" height="50" as="geometry" />
        </mxCell>
        <mxCell id="eCUZiB_lusp3el6IH75c-6" value="Google Workspace" style="text;html=1;align=center;verticalAlign=middle;whiteSpace=wrap;rounded=0;" vertex="1" parent="1">
          <mxGeometry x="385" y="260" width="60" height="30" as="geometry" />
        </mxCell>
        <mxCell id="eCUZiB_lusp3el6IH75c-8" value="" style="outlineConnect=0;dashed=0;verticalLabelPosition=bottom;verticalAlign=top;align=center;html=1;shape=mxgraph.aws3.rds;fillColor=#2E73B8;gradientColor=none;" vertex="1" parent="1">
          <mxGeometry x="830" y="179" width="72" height="81" as="geometry" />
        </mxCell>
        <mxCell id="eCUZiB_lusp3el6IH75c-9" style="edgeStyle=orthogonalEdgeStyle;rounded=0;orthogonalLoop=1;jettySize=auto;html=1;entryX=0.587;entryY=-0.019;entryDx=0;entryDy=0;entryPerimeter=0;" edge="1" parent="1" source="eCUZiB_lusp3el6IH75c-8" target="eCUZiB_lusp3el6IH75c-3">
          <mxGeometry relative="1" as="geometry" />
        </mxCell>
        <mxCell id="eCUZiB_lusp3el6IH75c-10" style="edgeStyle=orthogonalEdgeStyle;rounded=0;orthogonalLoop=1;jettySize=auto;html=1;" edge="1" parent="1" target="eCUZiB_lusp3el6IH75c-8">
          <mxGeometry relative="1" as="geometry">
            <mxPoint x="640.8" y="309" as="sourcePoint" />
            <mxPoint x="810" y="239" as="targetPoint" />
            <Array as="points">
              <mxPoint x="650" y="309" />
              <mxPoint x="650" y="300" />
              <mxPoint x="660" y="300" />
              <mxPoint x="660" y="239" />
            </Array>
          </mxGeometry>
        </mxCell>
        <mxCell id="eCUZiB_lusp3el6IH75c-12" value="RDS" style="text;html=1;align=center;verticalAlign=middle;whiteSpace=wrap;rounded=0;" vertex="1" parent="1">
          <mxGeometry x="837" y="259" width="60" height="30" as="geometry" />
        </mxCell>
        <mxCell id="eCUZiB_lusp3el6IH75c-13" value="" style="outlineConnect=0;dashed=0;verticalLabelPosition=bottom;verticalAlign=top;align=center;html=1;shape=mxgraph.aws3.mysql_db_instance;fillColor=#2E73B8;gradientColor=none;" vertex="1" parent="1">
          <mxGeometry x="380" y="310" width="60" height="64.5" as="geometry" />
        </mxCell>
        <mxCell id="eCUZiB_lusp3el6IH75c-15" value="Merchant A" style="text;html=1;align=center;verticalAlign=middle;whiteSpace=wrap;rounded=0;" vertex="1" parent="1">
          <mxGeometry x="380" y="374" width="60" height="30" as="geometry" />
        </mxCell>
        <mxCell id="eCUZiB_lusp3el6IH75c-16" value="" style="image;sketch=0;aspect=fixed;html=1;points=[];align=center;fontSize=12;image=img/lib/mscae/Azure_Database_for_MySQL_servers.svg;" vertex="1" parent="1">
          <mxGeometry x="837" y="310" width="53.2" height="70" as="geometry" />
        </mxCell>
        <mxCell id="eCUZiB_lusp3el6IH75c-17" value="Azure SQL" style="text;html=1;align=center;verticalAlign=middle;whiteSpace=wrap;rounded=0;" vertex="1" parent="1">
          <mxGeometry x="833.6" y="378.5" width="60" height="30" as="geometry" />
        </mxCell>
        <mxCell id="eCUZiB_lusp3el6IH75c-19" style="edgeStyle=orthogonalEdgeStyle;rounded=0;orthogonalLoop=1;jettySize=auto;html=1;" edge="1" parent="1" source="eCUZiB_lusp3el6IH75c-16">
          <mxGeometry relative="1" as="geometry">
            <mxPoint x="700" y="345" as="targetPoint" />
          </mxGeometry>
        </mxCell>
        <mxCell id="eCUZiB_lusp3el6IH75c-20" style="edgeStyle=orthogonalEdgeStyle;rounded=0;orthogonalLoop=1;jettySize=auto;html=1;entryX=0.027;entryY=0.493;entryDx=0;entryDy=0;entryPerimeter=0;" edge="1" parent="1" source="eCUZiB_lusp3el6IH75c-13" target="eCUZiB_lusp3el6IH75c-3">
          <mxGeometry relative="1" as="geometry" />
        </mxCell>
        <mxCell id="eCUZiB_lusp3el6IH75c-23" style="edgeStyle=orthogonalEdgeStyle;rounded=0;orthogonalLoop=1;jettySize=auto;html=1;" edge="1" parent="1" source="eCUZiB_lusp3el6IH75c-21" target="eCUZiB_lusp3el6IH75c-3">
          <mxGeometry relative="1" as="geometry">
            <mxPoint x="550" y="370" as="targetPoint" />
            <Array as="points">
              <mxPoint x="770" y="482" />
              <mxPoint x="770" y="355" />
            </Array>
          </mxGeometry>
        </mxCell>
        <mxCell id="eCUZiB_lusp3el6IH75c-25" value="" style="group" vertex="1" connectable="0" parent="1">
          <mxGeometry x="840" y="440" width="60" height="94.5" as="geometry" />
        </mxCell>
        <mxCell id="eCUZiB_lusp3el6IH75c-21" value="" style="outlineConnect=0;dashed=0;verticalLabelPosition=bottom;verticalAlign=top;align=center;html=1;shape=mxgraph.aws3.oracle_db_instance;fillColor=#2E73B8;gradientColor=none;" vertex="1" parent="eCUZiB_lusp3el6IH75c-25">
          <mxGeometry width="60" height="64.5" as="geometry" />
        </mxCell>
        <mxCell id="eCUZiB_lusp3el6IH75c-22" value="Merchant&lt;div&gt;B&lt;/div&gt;" style="text;html=1;align=center;verticalAlign=middle;whiteSpace=wrap;rounded=0;" vertex="1" parent="eCUZiB_lusp3el6IH75c-25">
          <mxGeometry y="64.5" width="60" height="30" as="geometry" />
        </mxCell>
        <mxCell id="eCUZiB_lusp3el6IH75c-27" value="" style="group" vertex="1" connectable="0" parent="1">
          <mxGeometry x="370" y="425" width="70" height="95" as="geometry" />
        </mxCell>
        <mxCell id="eCUZiB_lusp3el6IH75c-24" value="" style="sketch=0;pointerEvents=1;shadow=0;dashed=0;html=1;strokeColor=none;fillColor=#505050;labelPosition=center;verticalLabelPosition=bottom;verticalAlign=top;outlineConnect=0;align=center;shape=mxgraph.office.services.excel_services;" vertex="1" parent="eCUZiB_lusp3el6IH75c-27">
          <mxGeometry width="70" height="65" as="geometry" />
        </mxCell>
        <mxCell id="eCUZiB_lusp3el6IH75c-26" value="Merchant C" style="text;html=1;align=center;verticalAlign=middle;whiteSpace=wrap;rounded=0;" vertex="1" parent="eCUZiB_lusp3el6IH75c-27">
          <mxGeometry x="5" y="65" width="60" height="30" as="geometry" />
        </mxCell>
        <mxCell id="eCUZiB_lusp3el6IH75c-28" style="edgeStyle=orthogonalEdgeStyle;rounded=0;orthogonalLoop=1;jettySize=auto;html=1;entryX=0.005;entryY=0.47;entryDx=0;entryDy=0;entryPerimeter=0;" edge="1" parent="1" source="eCUZiB_lusp3el6IH75c-24" target="eCUZiB_lusp3el6IH75c-3">
          <mxGeometry relative="1" as="geometry" />
        </mxCell>
      </root>
    </mxGraphModel>
  </diagram>
</mxfile>
